<?xml version="1.0" encoding="UTF-8"?><svg id="Layer_2" xmlns="http://www.w3.org/2000/svg" xmlns:xlink="http://www.w3.org/1999/xlink" viewBox="0 0 366.5 245.52"><defs><style>.cls-1{fill:url(#linear-gradient-2);}.cls-2{fill:url(#linear-gradient);}</style><linearGradient id="linear-gradient" x1="23.93" y1="64.07" x2="199.87" y2="64.07" gradientTransform="matrix(1, 0, 0, 1, 0, 0)" gradientUnits="userSpaceOnUse"><stop offset="0" stop-color="#fbedb2"/><stop offset=".32" stop-color="#faeaaf"/><stop offset=".54" stop-color="#f9e3a5"/><stop offset=".74" stop-color="#f7d796"/><stop offset=".91" stop-color="#f5c680"/><stop offset="1" stop-color="#f4bc73"/></linearGradient><linearGradient id="linear-gradient-2" x1="0" y1="122.84" x2="366.5" y2="122.84" gradientTransform="matrix(1, 0, 0, 1, 0, 0)" gradientUnits="userSpaceOnUse"><stop offset="0" stop-color="#ff93a5"/><stop offset=".11" stop-color="#fc9a9b"/><stop offset=".43" stop-color="#f8ad85"/><stop offset=".73" stop-color="#f5b877"/><stop offset="1" stop-color="#f4bc73"/></linearGradient></defs><g id="Tracks"><g id="rays"><g><path class="cls-2" d="M199.76,71.66c-1.42,7.6-14.96,5.25-24.06,18.76-10.97,16.28-1.87,35.35-7.75,37.52-6.09,2.25-22.2-15.85-31-33.85-3.28-6.7-4.26-10.77-9.08-14.1-7.24-5-14.79-2.59-28.44-2.62-13.98,1.78-23.54-1.25-28.96-3.67-6.92-3.09-9.68-6.36-35.89-38.75-7.43-9.18-11.13-13.83-10.6-17.13C25.83,6.17,52.05-1.73,74.17,.33c15.31,1.43,24,7.32,43.61,18.72,57.2,33.28,84,41.79,81.98,52.61Z"/><path class="cls-1" d="M139.33,23.27C104.02,7.05,86.37-1.06,74.17,.33,41.07,4.1,20.71,42.29,14.52,53.9,4.45,72.8,2.41,89.39,1.14,100.62c-.6,5.31-3.38,29.81,2.86,31.81,4.11,1.32,7.95-8.47,21.21-21.62,9.56-9.48,19.42-15.43,39.15-27.33,16.69-10.06,25.22-15.13,34.26-17.13,9.63-2.13,17.71-1.69,33.85-.82,7.53,.41,18.58,1.04,32.3,3.68,5.39,1.04,23.75,4.79,47.87,15.48,7.61,3.37,36.62,16.67,68.7,43.65,0,0,32.97,27.74,65.67,76.68,3.8,5.7,9.42,14.19,14.43,26.41,3.37,8.23,4.83,14.14,5.05,14.07,.31-.09-2.39-13.04-8.99-27.81,0,0-2.23-4.99-5-10.08-16.63-30.55-40.97-57.65-40.97-57.65-31.3-34.85-82.47-79.67-139.63-110.66-13.03-7.07-23.77-12-32.55-16.04Z"/></g></g></g></svg>