<?xml version="1.0" encoding="UTF-8"?><svg id="Layer_2" xmlns="http://www.w3.org/2000/svg" xmlns:xlink="http://www.w3.org/1999/xlink" viewBox="0 0 427.33 435.29"><defs><style>.cls-1{fill:url(#linear-gradient-2);}.cls-2{fill:#fafff7;}.cls-3{fill:url(#linear-gradient);}</style><linearGradient id="linear-gradient" x1="196.56" y1="181.99" x2="578.61" y2="181.99" gradientTransform="translate(-32.89 62.17) rotate(-.59) scale(.8 .9) skewX(-1.25)" gradientUnits="userSpaceOnUse"><stop offset="0" stop-color="#ff93a5"/><stop offset=".27" stop-color="#fba193"/><stop offset=".72" stop-color="#f5b47b"/><stop offset="1" stop-color="#f4bc73"/></linearGradient><linearGradient id="linear-gradient-2" x1="285.27" y1="229.62" x2="53.43" y2="-2.23" gradientTransform="translate(-32.89 62.17) rotate(-.59) scale(.8 .9) skewX(-1.25)" gradientUnits="userSpaceOnUse"><stop offset="0" stop-color="#f4bc73"/><stop offset=".1" stop-color="#f5c984"/><stop offset=".26" stop-color="#f8d998"/><stop offset=".43" stop-color="#f9e4a7"/><stop offset=".65" stop-color="#faebaf"/><stop offset="1" stop-color="#fbedb2"/></linearGradient></defs><g id="Tracks"><g id="rays"><g><path class="cls-3" d="M269.48,113.93c-.19,18.44-3.79,21.89-8.15,50.91-6.01,40.01-1.33,46.58,1.26,49.06,4.67,4.47,9.75,2.5,15.68,9.83,3.77,4.66,3.67,7.87,8.44,13.98,3.95,5.07,7.86,7.78,9.95,9.29,73.77,53.2,104.12,97.16,104.12,97.16,21.99,31.85,25.13,53.67,25.95,62.14,1.25,13.03,.32,28.93-.67,28.99-.92,.06-2.18-13.6-3.14-25.71-4.46-15.61-9.53-27.83-13.49-36.33-18.12-38.93-51.67-65.99-118.02-118.51-5.89-4.66-16.4-12.77-31.25-14.27-9.45-.95-15.09,1.34-23.64,2.67,0,0-21.19,5.33-46.98-5.74-45.74-19.63-75.9-82.47-62.55-106.86,3.33-6.09,6.75-5,28.01-17.33,4.38-2.54,25.17-14.72,43.47-29.79,7.74-6.37,8.79-8.12,51-51.38,15.95-16.35,24.01-24.48,27.8-21.91,.82,.55,2.93,2.62-.99,26.68-4.02,24.7-7.51,30.24-8.61,45.42-1.1,15.1,2.01,14.09,1.83,31.71Z"/><path class="cls-1" d="M214.32,243.93c-7.29-.35-17.7-1.01-30.17-2.4-21.8-2.42-38.84-3.96-57.23-10.4-30.17-10.56-25.14-17.32-46.92-22.56-26.22-6.31-34.92,3.15-55.71-7.81C10.22,193.34-1.64,180.64,.19,172.59c.37-1.63,1.04-1.95,4.39-9.62,3.74-8.57,3.12-8.66,4.54-10.92,4.67-7.43,10.77-5.43,15.24-11.5,4.02-5.45,3.33-12.8,3.09-16.89-1.6-27.78,8.14-69.29,17.9-93.04C51.54,15.58,57.57,.91,66.91,.04c12.54-1.17,24.09,23.17,37.51,51.49,5.37,11.33,5.12,12.53,19.68,46.62,6.99,16.37,10.49,24.56,13.91,31.96,5.44,11.75,15.64,33.65,30.96,57.32,10.05,15.54,24.74,35.6,45.34,56.49Z"/></g></g><g id="clouds"><path class="cls-2" d="M365.63,248.13c-9.96-2.28-20.28-3.41-30.52-3.34-2.26,.02-4.66,.13-6.46,1.15-4.58,2.6,.71,9.88,6.01,8.28-5.17,6.28-11.71,11.82-19.29,16.32l65.45-4.71c-.78-9.94-9.7-19.48-15.19-17.7Z"/></g></g></svg>