<?xml version="1.0" encoding="UTF-8"?><svg id="Layer_2" xmlns="http://www.w3.org/2000/svg" xmlns:xlink="http://www.w3.org/1999/xlink" viewBox="0 0 256.03 303.93"><defs><style>.cls-1{fill:url(#linear-gradient-2);}.cls-2{fill:url(#linear-gradient);}</style><linearGradient id="linear-gradient" x1="12.54" y1="151.96" x2="256.03" y2="151.96" gradientTransform="matrix(1, 0, 0, 1, 0, 0)" gradientUnits="userSpaceOnUse"><stop offset="0" stop-color="#ff93a5"/><stop offset=".37" stop-color="#f9a78b"/><stop offset=".74" stop-color="#f5b679"/><stop offset="1" stop-color="#f4bc73"/></linearGradient><linearGradient id="linear-gradient-2" x1="0" y1="127.87" x2="61.65" y2="127.87" gradientTransform="matrix(1, 0, 0, 1, 0, 0)" gradientUnits="userSpaceOnUse"><stop offset="0" stop-color="#fbedb2"/><stop offset=".23" stop-color="#fae9ad"/><stop offset=".51" stop-color="#f8de9f"/><stop offset=".8" stop-color="#f6cc87"/><stop offset="1" stop-color="#f4bc73"/></linearGradient></defs><g id="Tracks"><g id="rays"><g><path class="cls-2" d="M148.66,10.36c-7.08,10.31-5.44,17.19-9.49,38.6-4.22,22.33-7.4,22.14-6.87,33.69,.49,10.62,3.22,11.93,2.94,23.88-.25,10.67-2.56,15.28,.33,21.59,2.37,5.19,7.09,4.12,12.33,11.22,2.83,3.84,2.83,5.62,5.01,9.39,4.91,8.46,12.47,12.42,15.7,14.39,10.49,6.39,66.82,47.5,82.43,103.36,5.21,18.66,5.43,37.32,4.67,37.45-.66,.11-2.27-13.86-7.29-30.25-11.22-36.72-32.59-62.97-46.45-77.11-4.23-4.32-12.39-10.89-28.7-24.04-15.55-12.53-22.61-17.46-30.85-17.02-1.83,.1-5.42,.54-10.45-.23-7.03-1.07-11.8-3.77-13.41-4.58-12.45-6.23-25.22,6.23-43.83,4.58-6.25-.55-18.45-8.98-42.85-25.84-12.85-8.88-19.95-14.52-19.3-20.93,.58-5.64,6.59-6.39,8.18-13.74,2.03-9.38-6.47-14.19-3.74-20.62,3.21-7.58,18.09-8.13,19.45-8.17,10.11-.27,13.11,4.33,19.95,2.62,7.23-1.81,10.79-8.66,14.07-13.74,6.75-10.46,16.27-17.44,35.33-31.4C128.47,6.84,154.36-2.42,156.18,.55c.75,1.22-3.2,3.53-7.52,9.81Z"/><path class="cls-1" d="M61.65,149.7c-7.44-3.97-13.59-6.93-17.66-8.83-10.51-4.9-20.7-10.44-31.16-15.46-4.17-2-9.53-4.54-11.78-10.06-.22-.54-2.26-5.72,0-8.1,2.68-2.82,10-.18,14.23,2.21,7.05,3.98,6.91,8,14.47,14.72,5.65,5.02,7.45,4.3,14.96,9.57,4.39,3.08,10.54,8.06,16.93,15.95Z"/></g></g></g></svg>