<svg xmlns="http://www.w3.org/2000/svg" xmlns:xlink="http://www.w3.org/1999/xlink" viewBox="0 0 559.88 543.34"><defs><style>.cls-1{fill:url(#linear-gradient);}.cls-2{fill:url(#linear-gradient-2);}.cls-3{fill:url(#linear-gradient-3);}.cls-4{fill:url(#linear-gradient-4);}.cls-5{fill:url(#linear-gradient-5);}.cls-6{fill:url(#linear-gradient-6);}.cls-7{fill:url(#linear-gradient-7);}.cls-8{fill:#2681a2;}</style><linearGradient id="linear-gradient" x1="559.78" y1="490.32" x2="253.5" y2="184.04" gradientUnits="userSpaceOnUse"><stop offset="0" stop-color="#f4bc73"/><stop offset="0.27" stop-color="#f5b877"/><stop offset="0.57" stop-color="#f8ae85"/><stop offset="0.88" stop-color="#fd9c9a"/><stop offset="1" stop-color="#ff93a5"/></linearGradient><linearGradient id="linear-gradient-2" x1="290.1" y1="219.76" x2="533.58" y2="219.76" gradientUnits="userSpaceOnUse"><stop offset="0" stop-color="#ff93a5"/><stop offset="0.37" stop-color="#f9a88c"/><stop offset="0.74" stop-color="#f5b77a"/><stop offset="1" stop-color="#f4bc73"/></linearGradient><linearGradient id="linear-gradient-3" x1="277.55" y1="195.68" x2="339.2" y2="195.68" gradientUnits="userSpaceOnUse"><stop offset="0" stop-color="#fbedb2"/><stop offset="0.23" stop-color="#fae9ad"/><stop offset="0.51" stop-color="#f9de9f"/><stop offset="0.8" stop-color="#f6cc88"/><stop offset="1" stop-color="#f4bc73"/></linearGradient><linearGradient id="linear-gradient-4" x1="23.93" y1="64.07" x2="199.87" y2="64.07" gradientUnits="userSpaceOnUse"><stop offset="0" stop-color="#fbedb2"/><stop offset="0.32" stop-color="#fbebaf"/><stop offset="0.54" stop-color="#fae4a6"/><stop offset="0.74" stop-color="#f8d896"/><stop offset="0.91" stop-color="#f6c781"/><stop offset="1" stop-color="#f4bc73"/></linearGradient><linearGradient id="linear-gradient-5" y1="122.84" x2="366.5" y2="122.84" gradientUnits="userSpaceOnUse"><stop offset="0" stop-color="#ff93a5"/><stop offset="0.11" stop-color="#fd9b9c"/><stop offset="0.43" stop-color="#f8ad85"/><stop offset="0.73" stop-color="#f5b878"/><stop offset="1" stop-color="#f4bc73"/></linearGradient><linearGradient id="linear-gradient-6" x1="147.51" y1="241.81" x2="363.81" y2="241.81" gradientUnits="userSpaceOnUse"><stop offset="0" stop-color="#ff93a5"/><stop offset="0.27" stop-color="#fba194"/><stop offset="0.72" stop-color="#f6b57c"/><stop offset="1" stop-color="#f4bc73"/></linearGradient><linearGradient id="linear-gradient-7" x1="197.74" y1="268.78" x2="66.48" y2="137.52" gradientUnits="userSpaceOnUse"><stop offset="0" stop-color="#f4bc73"/><stop offset="0.1" stop-color="#f6ca84"/><stop offset="0.26" stop-color="#f8d999"/><stop offset="0.43" stop-color="#fae4a7"/><stop offset="0.65" stop-color="#fbebaf"/><stop offset="1" stop-color="#fbedb2"/></linearGradient></defs><g id="Layer_2" data-name="Layer 2"><g id="Tracks"><g id="rays"><path class="cls-1" d="M489.29,222.75c1.56,2.48-4,6.21-18.88,25.75-15.81,20.69-26.48,34.69-33.42,54.39-3.39,9.6-5.86,20.46-13.46,40.39-3.8,9.94-7.13,14.44-12.55,19.27-6.6,5.88-15.22,9.66-14.37,13.15.37,1.54,2.23,1.52,4.48,4.9.78,1.16,2.24,3.28,2.25,5.5,0,3.71-4.52,6.49-5.92,7.95-7.26,7.61,10.76,48.74,54.45,90.14,17.65,16.72,37,31.15,44.61,36.81,16.92,12.6,31.54,22,31.36,22.33s-14.43-8.24-30.29-19.17C477,510,451.34,492.08,425.77,463c-12.71-14.45-19.06-21.68-23.66-30.38-8-15.09-8.49-24.94-17.74-28.76-8.39-3.46-16.57,1.08-22.72-5.12-3.12-3.15-2.06-5.37-4.39-8.51-6.58-8.86-21.59-.44-41.2-3.9-12.33-2.18-23.36-10.23-45.28-26.52-19.3-14.34-17.87-16.39-31-24.06-10.5-6.13-14.37-6.56-35.49-16.72-20-9.64-30-14.52-29.49-17.72.89-5.6,25.5-7.93,47.4-6.17,43.75,3.54,59.5,22,79.16,11.65C313.27,300.49,312,291.36,325,288c12.56-3.22,21.41,3.28,34.67-3.26a39.45,39.45,0,0,0,10.19-7.34C392.65,255.85,483.32,213.21,489.29,222.75Z"/><path class="cls-2" d="M426.21,78.16c-7.08,10.31-5.44,17.2-9.49,38.6-4.22,22.33-7.39,22.14-6.86,33.69.48,10.62,3.22,11.93,2.94,23.88-.25,10.67-2.56,15.28.33,21.59,2.37,5.19,7.09,4.12,12.32,11.22,2.83,3.84,2.83,5.62,5,9.38,4.92,8.47,12.47,12.43,15.7,14.4,10.49,6.39,66.82,47.5,82.43,103.36,5.22,18.65,5.43,37.32,4.67,37.45S531,357.87,526,341.47c-11.22-36.71-32.58-63-46.44-77.11-4.23-4.31-12.39-10.89-28.71-24-15.54-12.53-22.6-17.46-30.85-17a44.31,44.31,0,0,1-10.44-.23,41.91,41.91,0,0,1-13.41-4.58c-12.45-6.23-25.22,6.22-43.83,4.58-6.26-.56-18.46-9-42.85-25.84-12.86-8.89-20-14.53-19.3-20.94.57-5.64,6.59-6.39,8.18-13.74,2-9.38-6.48-14.19-3.75-20.62,3.22-7.58,18.09-8.13,19.45-8.16,10.11-.27,13.1,4.33,20,2.62,7.23-1.81,10.79-8.67,14.06-13.74,6.75-10.46,16.28-17.44,35.33-31.4,22.66-16.61,48.55-25.87,50.37-22.9C434.49,69.57,430.53,71.88,426.21,78.16Z"/><path class="cls-3" d="M339.2,217.51c-7.43-4-13.58-6.94-17.66-8.84-10.51-4.89-20.7-10.44-31.16-15.45-4.17-2-9.53-4.54-11.77-10.06-.22-.54-2.26-5.72,0-8.1,2.68-2.82,10-.17,14.23,2.21,7.05,4,6.91,8,14.47,14.72,5.65,5,7.45,4.3,15,9.57A82.86,82.86,0,0,1,339.2,217.51Z"/><path class="cls-4" d="M199.76,71.66c-1.42,7.6-15,5.25-24.06,18.77-11,16.28-1.87,35.35-7.75,37.52-6.09,2.25-22.2-15.85-31-33.85-3.27-6.71-4.26-10.77-9.08-14.1-7.23-5-14.79-2.59-28.44-2.63-14,1.78-23.54-1.25-29-3.67C63.55,70.61,60.79,67.34,34.58,35,27.15,25.78,23.45,21.12,24,17.83,25.83,6.17,52.05-1.73,74.17.33c15.32,1.42,24,7.31,43.61,18.72C175,52.34,201.79,60.84,199.76,71.66Z"/><path class="cls-5" d="M139.33,23.27C104,7.05,86.37-1.06,74.17.33c-33.1,3.77-53.46,42-59.65,53.57C4.45,72.8,2.41,89.39,1.14,100.62.53,105.93-2.24,130.43,4,132.44c4.11,1.31,8-8.47,21.21-21.62,9.56-9.48,19.42-15.43,39.15-27.33C81,73.43,89.57,68.36,98.61,66.36c9.64-2.12,17.71-1.69,33.86-.81a226.43,226.43,0,0,1,32.3,3.68c5.39,1,23.75,4.79,47.87,15.48,7.61,3.37,36.62,16.67,68.69,43.65,0,0,33,27.73,65.67,76.67a143.39,143.39,0,0,1,14.43,26.41c3.37,8.23,4.83,14.14,5.05,14.07s-2.4-13-9-27.8c0,0-2.23-5-5-10.08-16.63-30.55-41-57.66-41-57.66-31.3-34.85-82.47-79.66-139.64-110.66C158.85,32.24,148.11,27.31,139.33,23.27Z"/><path class="cls-6" d="M250.27,173.2c0,11.56-2.54,13.71-5.43,31.89-4,25.06-.64,29.21,1.2,30.78,3.34,2.84,6.91,1.63,11.15,6.27,2.69,3,2.64,5,6.05,8.82a31.25,31.25,0,0,0,7.1,5.89c52.48,33.86,74.21,61.63,74.21,61.63,15.75,20.12,18.11,33.83,18.74,39.15,1,8.18.41,18.15-.29,18.18s-1.63-8.54-2.38-16.15a146,146,0,0,0-9.77-22.88c-13.06-24.54-36.94-41.73-84.17-75.11-4.2-3-11.68-8.12-22.18-9.15-6.68-.65-10.66.75-16.7,1.52,0,0-14.93,3.21-33.23-3.9-32.46-12.61-54.18-52.23-44.9-67.45,2.31-3.79,4.74-3.09,19.68-10.69a243.78,243.78,0,0,0,30.53-18.41c5.43-4,6.17-5,35.71-31.9,11.17-10.16,16.82-15.21,19.51-13.57.58.35,2.09,1.66-.53,16.73-2.68,15.47-5.11,18.92-5.79,28.44S250.29,162.14,250.27,173.2Z"/><path class="cls-7" d="M212.12,254.4c-5.16-.27-12.52-.75-21.34-1.7-15.42-1.66-27.48-2.74-40.51-6.89-21.4-6.82-17.88-11-33.31-14.46-18.57-4.13-24.66,1.75-39.43-5.26-10-4.75-18.45-12.78-17.21-17.82.25-1,.72-1.22,3-6,2.59-5.35,2.15-5.41,3.14-6.83,3.25-4.63,7.57-3.33,10.7-7.11,2.8-3.4,2.27-8,2.08-10.58-1.31-17.44,5.31-43.42,12-58.25,4.27-9.4,8.44-18.56,15-19,8.86-.65,17.17,14.69,26.84,32.54,3.87,7.14,3.7,7.9,14.21,29.38,5,10.32,7.57,15.48,10,20.14a282.57,282.57,0,0,0,22.25,36.16A236,236,0,0,0,212.12,254.4Z"/></g><g id="Layer_47" data-name="Layer 47"><path class="cls-8" d="M558.43,431.31a1.5,1.5,0,0,0,0-3,1.5,1.5,0,0,0,0,3Z"/></g></g></g></svg>