<?xml version="1.0" encoding="UTF-8"?><svg id="Layer_2" xmlns="http://www.w3.org/2000/svg" xmlns:xlink="http://www.w3.org/1999/xlink" viewBox="0 0 451.35 286.77"><defs><style>.cls-1{fill:url(#linear-gradient-2);}.cls-2{fill:none;stroke:#f0ffe5;stroke-miterlimit:10;}.cls-3{fill:url(#linear-gradient-6);}.cls-4{fill:url(#linear-gradient-11);}.cls-5{fill:url(#linear-gradient-10);}.cls-6{fill:#fbedb2;}.cls-7{fill:url(#linear-gradient-5);}.cls-8{fill:#052532;}.cls-9{fill:url(#linear-gradient-7);}.cls-10{fill:#f0ffe5;}.cls-11{fill:url(#linear-gradient-9);}.cls-12{fill:url(#linear-gradient-3);}.cls-13{fill:url(#linear-gradient);}.cls-14{fill:url(#linear-gradient-4);}.cls-15{fill:url(#linear-gradient-8);}.cls-16{fill:url(#linear-gradient-12);}</style><linearGradient id="linear-gradient" x1="-334.15" y1="-35.38" x2="-250.12" y2="-147.47" gradientTransform="translate(-244.97 68.37) rotate(-166.06) scale(1 -1)" gradientUnits="userSpaceOnUse"><stop offset="0" stop-color="#00bdc2"/><stop offset=".26" stop-color="#49caba"/><stop offset=".63" stop-color="#aadbb1"/><stop offset=".88" stop-color="#e7e5ab"/><stop offset="1" stop-color="#ffeaa9"/></linearGradient><linearGradient id="linear-gradient-2" x1="-274.26" y1="-125.35" x2="-261.7" y2="-142.1" xlink:href="#linear-gradient"/><linearGradient id="linear-gradient-3" x1="-437.37" y1="-13.87" x2="-362.06" y2="-13.87" gradientTransform="translate(-244.97 68.37) rotate(-166.06) scale(1 -1)" gradientUnits="userSpaceOnUse"><stop offset=".32" stop-color="#00bdc2"/><stop offset=".47" stop-color="#49caba"/><stop offset=".68" stop-color="#aadbb1"/><stop offset=".82" stop-color="#e7e5ab"/><stop offset=".89" stop-color="#ffeaa9"/></linearGradient><linearGradient id="linear-gradient-4" x1="-728.2" y1="2.69" x2="-624.16" y2="2.69" xlink:href="#linear-gradient"/><linearGradient id="linear-gradient-5" x1="-752.64" y1="94.13" x2="-567.88" y2="10.43" gradientTransform="translate(-225.84 -415.23) rotate(-125.25) scale(1 -1)" gradientUnits="userSpaceOnUse"><stop offset="0" stop-color="#00bdc2"/><stop offset=".15" stop-color="#49caba"/><stop offset=".37" stop-color="#aadbb1"/><stop offset=".52" stop-color="#e7e5ab"/><stop offset=".59" stop-color="#ffeaa9"/></linearGradient><linearGradient id="linear-gradient-6" x1="-723.71" y1="144.18" x2="-604.04" y2="-15.47" gradientTransform="translate(-225.84 -415.23) rotate(-125.25) scale(1 -1)" xlink:href="#linear-gradient"/><linearGradient id="linear-gradient-7" x1="-1018.84" y1="-2235.83" x2="-900.37" y2="-2393.87" gradientTransform="translate(-2387.94 -146.57) rotate(-105.86) scale(1 -1)" xlink:href="#linear-gradient"/><linearGradient id="linear-gradient-8" x1="274.59" y1="247.2" x2="277.49" y2="247.2" gradientTransform="matrix(1, 0, 0, 1, 0, 0)" xlink:href="#linear-gradient"/><linearGradient id="linear-gradient-9" x1="89.87" y1="130.38" x2="448.29" y2="130.38" gradientTransform="matrix(1, 0, 0, 1, 0, 0)" gradientUnits="userSpaceOnUse"><stop offset="0" stop-color="#ffeaa9"/><stop offset="1" stop-color="#00bdc2"/></linearGradient><linearGradient id="linear-gradient-10" x1="114" y1="114.53" x2="430.23" y2="114.53" xlink:href="#linear-gradient-9"/><linearGradient id="linear-gradient-11" x1="114" y1="114.53" x2="430.23" y2="114.53" xlink:href="#linear-gradient-9"/><linearGradient id="linear-gradient-12" x1="114" y1="114.53" x2="430.23" y2="114.53" xlink:href="#linear-gradient-9"/></defs><g id="Tracks"><g id="turtle2"><path id="Head" class="cls-13" d="M109.53,42.71s-19.13-8.78-36.62-27.81l-7.61-5.21L31.09,.68S.35,9.17,.2,27.05c-.15,17.87,31.69,27.32,31.69,27.32,0,0,38.42,6.1,49.63,32.57,11.2,26.48,49.71,27.9,49.71,27.9l-21.7-72.13Z"/><path class="cls-1" d="M65.3,9.68s-1.93-2.55-11.6-7.01C44.03-1.79,31.09,.68,31.09,.68l34.21,9Z"/><path class="cls-2" d="M97.72,73.21s-19.88-21.72-39.46-24.54S5.8,34.59,.44,24.36"/><path class="cls-2" d="M97.93,96.23s-17.17-34.27-36.75-37.09c-19.58-2.82-53.78-14.44-59.14-24.67"/><path id="Bottom_Shell" class="cls-12" d="M178.97,175.94s-44.19-10.56-60.38-34.06c-16.19-23.51,7.22-11.47,7.22-11.47l53.15,45.53Z"/><path id="Back_leg_front" class="cls-14" d="M399.66,188.4l36.4,32.74c.18,.16,.34,.33,.5,.5,1.81,2.01,12.42,14.22,9.25,21.2-.89,1.96-.97,4.23-.07,6.19,.77,1.69,1.99,3.92,3.94,6.77,1.6,2.34,1.13,5.91,.51,8.72-.47,2.13-1.1,4.74-1.87,7.32-.84,2.82-.62,5.46-.16,7.47,.41,1.77,1.27,3.39,2.4,4.77,.96,1.18,1.73,2.86-1.95,2.68-5.38-.26-70.65-32.87-82.39-86.71-.84-3.83,1.5-7.64,5.14-8.4l22.77-4.78c1.97-.41,4.01,.15,5.54,1.52Z"/><path class="cls-2" d="M445.81,242.85s-68.92-44.08-65.73-56.08"/><path class="cls-10" d="M384.02,259.89c1.93,0,1.93-3,0-3s-1.93,3,0,3h0Z"/><path class="cls-2" d="M449.29,270.59s-86.45-61.28-81.79-79.12"/><g><path class="cls-7" d="M86.6,192c6.28-3.86,9.68-6.79,11.5-8.7,1.16-1.21,1.94-2.78,2.2-4.48,2.48-16.12,22.84-26.83,28.47-29.5,.97-.46,1.84-1.13,2.56-1.96l27.89-32.43-17.79,44.52c-.41,1.04-1.03,1.97-1.8,2.75-4.47,4.5-20.33,21.77-17.61,37.85,.29,1.7,.04,3.45-.67,5.01-1.12,2.44-3.41,6.4-8.12,12.25-8.38,10.41-12.12,37.09-12.61,40.82-.05,.36-.12,.72-.21,1.07-.65,2.44-3.43,10.86-9.95,5.35-4.68-3.96-16.62-20.01-20.78-52.55,4.71-7.69,10.92-16.29,16.92-19.98Z"/><path class="cls-3" d="M74.01,133.71c.23-1.16,.7-2.24,1.37-3.19,2.6-3.69,9.92-13.44,19.66-20.98,6.35-4.92,8.75-8.76,9.59-11.32,1.21-3.67,3.68-6.72,6.85-8.68,8.26-5.11,24.59-12.16,51.02-11.33,5.41,.17,8.96,6.07,6.85,11.35l-10.14,25.36-27.89,32.43c-.72,.83-1.59,1.5-2.56,1.96-5.63,2.67-25.99,13.38-28.47,29.5-.26,1.7-1.05,3.27-2.2,4.48-1.82,1.91-5.22,4.84-11.5,8.7-6,3.69-12.21,12.3-16.92,19.98-2.52-19.71-2.19-45.48,4.34-78.27Z"/><path class="cls-9" d="M74.01,133.71c.23-1.16,.7-2.24,1.37-3.19,2.6-3.69,9.92-13.44,19.66-20.98,6.35-4.92,8.75-8.76,9.59-11.32,1.21-3.67,3.68-6.72,6.85-8.68,8.26-5.11,24.59-12.16,51.02-11.33,5.41,.17,8.96,6.07,6.85,11.35l-10.14,25.36-27.89,32.43c-.72,.83-1.59,1.5-2.56,1.96-5.63,2.67-25.99,13.38-28.47,29.5-.26,1.7-1.05,3.27-2.2,4.48-1.82,1.91-5.22,4.84-11.5,8.7-6,3.69-12.21,12.3-16.92,19.98-2.52-19.71-2.19-45.48,4.34-78.27Z"/></g><path class="cls-2" d="M80.25,249.78s24.91-87.3,57.67-100.88"/><path class="cls-2" d="M69.67,211.98s46.93-80.75,81.9-84.76"/><path class="cls-2" d="M68.62,174.48s57.22-59.53,92.19-63.55"/><path class="cls-15" d="M276.04,248.7c1.93,0,1.93-3,0-3s-1.93,3,0,3h0Z"/><g><path class="cls-11" d="M107.21,25.7l16.48-3.57,3.21,.27-12.08,26.39,1.58,19.8-2.41,12.29,4.45,8.81s6.34,40.43,49.8,71.25l8.62,12.84,14.45,3.8,15.96,11.25s21.4,13.85,66.57,17.51c45.17,3.66,132.8-25.09,132.8-25.09,0,0,16.35-4.78,23.58-10.27l13.4,12.4,4.3,8.38c4.3,8.38-29.85,18.36-29.85,18.36,0,0-98.27,32.25-148.93,28.14-50.66-4.11-74.65-19.64-74.65-19.64l-17.9-12.61-16.21-4.26-9.66-14.4c-48.74-34.56-55.85-79.91-55.85-79.91l-4.99-9.88,2.7-13.78-1.77-22.2,16.41-35.86Z"/><path class="cls-11" d="M107.21,25.7l16.48-3.57,3.21,.27-12.08,26.39,1.58,19.8-2.41,12.29,4.45,8.81s6.34,40.43,49.8,71.25l8.62,12.84,14.45,3.8,15.96,11.25s21.4,13.85,66.57,17.51c45.17,3.66,132.8-25.09,132.8-25.09,0,0,16.35-4.78,23.58-10.27l13.4,12.4,4.3,8.38c4.3,8.38-29.85,18.36-29.85,18.36,0,0-98.27,32.25-148.93,28.14-50.66-4.11-74.65-19.64-74.65-19.64l-17.9-12.61-16.21-4.26-9.66-14.4c-48.74-34.56-55.85-79.91-55.85-79.91l-4.99-9.88,2.7-13.78-1.77-22.2,16.41-35.86Z"/><path class="cls-5" d="M273.85,206.34c-45.17-3.66-66.57-17.51-66.57-17.51l-15.96-11.25-14.45-3.8-8.62-12.84c-43.46-30.82-49.8-71.25-49.8-71.25l-4.45-8.81,2.41-12.29-1.58-19.8,12.08-26.39,18.78,1.57,34.96,6.56,29.47,7.75,44.66,16.36,29.93,12.48,30.47,14.6,18.05,11.99,27.95,23.16,11.75,7.7,45.85,35.78,11.46,10.61c-7.23,5.49-23.58,10.27-23.58,10.27,0,0-87.63,28.76-132.8,25.09Z"/><path class="cls-4" d="M273.85,206.34c-45.17-3.66-66.57-17.51-66.57-17.51l-15.96-11.25-14.45-3.8-8.62-12.84c-43.46-30.82-49.8-71.25-49.8-71.25l-4.45-8.81,2.41-12.29-1.58-19.8,12.08-26.39,18.78,1.57,34.96,6.56,29.47,7.75,44.66,16.36,29.93,12.48,30.47,14.6,18.05,11.99,27.95,23.16,11.75,7.7,45.85,35.78,11.46,10.61c-7.23,5.49-23.58,10.27-23.58,10.27,0,0-87.63,28.76-132.8,25.09Z"/><path class="cls-16" d="M273.85,206.34c-45.17-3.66-66.57-17.51-66.57-17.51l-15.96-11.25-14.45-3.8-8.62-12.84c-43.46-30.82-49.8-71.25-49.8-71.25l-4.45-8.81,2.41-12.29-1.58-19.8,12.08-26.39,18.78,1.57,34.96,6.56,29.47,7.75,44.66,16.36,29.93,12.48,30.47,14.6,18.05,11.99,27.95,23.16,11.75,7.7,45.85,35.78,11.46,10.61c-7.23,5.49-23.58,10.27-23.58,10.27,0,0-87.63,28.76-132.8,25.09Z"/></g><g><path class="cls-6" d="M376.65,123.19l52.67,40.39s-14.47,18.89-24.7,19.23l-39.32-54.04,11.35-5.58Z"/><path class="cls-6" d="M336.38,133.48c-.5-.36-10.15-1.53-10.15-1.53l-18.65-28.34,22.47-15.34,38.51,27.43c-9.6,4.39-31.69,18.14-32.19,17.79Z"/><path class="cls-6" d="M359.5,131.11l28.31,46.06-3.69,6.6s-19.76,10.45-38.62,14.57l-10.17-3.94s.9-40.4,1.11-44.63c.21-4.23,23.04-18.67,23.04-18.67Z"/><path class="cls-6" d="M296.65,115.4l9.38-5.17,20.22,31.63,1.48,62.64s-34.64,19.18-65.64-7.08c0,0-1.6-23.91,10.84-56.28l23.73-25.73Z"/><polygon class="cls-6" points="253.08 56.42 295.52 70.37 312.38 83.13 303.48 96.18 271.62 125.91 239.71 81.93 253.08 56.42"/><polygon class="cls-6" points="230.87 88.94 262.75 139.31 255.46 194.11 247.27 200.01 183.36 181.38 176.42 163.67 195.64 113.14 230.87 88.94"/><polygon class="cls-6" points="188.05 95.6 158.67 52.28 163.9 29.93 217.41 41.74 239.75 50.9 242.49 58.43 226.19 77.62 188.05 95.6"/><path class="cls-6" d="M120.06,25.21l34.29,4.73-3.51,14.98-28.48,28.6s-9.43-6.27-7.09-27.86c2.33-21.6,4.79-20.45,4.79-20.45Z"/><path class="cls-6" d="M185.38,112.96l-11.8,38.98-11.53,3.54s-32.6-17.78-46.65-71.99l35.24-26.77,34.74,56.23Z"/></g><path class="cls-8" d="M35.67,20.8c.29,.47-5.64,4.28-12.19,5.23-4.87,.71-8.89-.34-8.59-.9,.26-.48,3.68-.37,10.1-1.66,6.94-1.39,10.46-3.02,10.68-2.68Z"/></g></g></svg>