<?xml version="1.0" encoding="UTF-8"?><svg id="Layer_2" xmlns="http://www.w3.org/2000/svg" xmlns:xlink="http://www.w3.org/1999/xlink" viewBox="0 0 437.73 253.25"><defs><style>.cls-1{fill:url(#linear-gradient-2);}.cls-2{fill:none;stroke:#f0ffe5;stroke-miterlimit:10;}.cls-3{fill:url(#linear-gradient-6);}.cls-4{fill:#0083aa;}.cls-5{fill:url(#linear-gradient-11);}.cls-6{fill:url(#linear-gradient-10);}.cls-7{fill:#fbedb2;}.cls-8{fill:url(#linear-gradient-5);}.cls-9{fill:#052532;}.cls-10{fill:url(#linear-gradient-7);}.cls-11{fill:url(#linear-gradient-9);}.cls-12{fill:url(#linear-gradient-3);}.cls-13{fill:url(#linear-gradient);}.cls-14{fill:url(#linear-gradient-4);}.cls-15{fill:url(#linear-gradient-8);}</style><linearGradient id="linear-gradient" x1="751.02" y1="412.48" x2="826.25" y2="312.11" gradientTransform="translate(910.6 -107.17) rotate(-165.39) scale(1 -1)" gradientUnits="userSpaceOnUse"><stop offset="0" stop-color="#00bdc2"/><stop offset=".26" stop-color="#49caba"/><stop offset=".63" stop-color="#aadbb1"/><stop offset=".88" stop-color="#e7e5ab"/><stop offset="1" stop-color="#ffeaa9"/></linearGradient><linearGradient id="linear-gradient-2" x1="804.7" y1="332.59" x2="816.16" y2="317.3" xlink:href="#linear-gradient"/><linearGradient id="linear-gradient-3" x1="654.64" y1="429.19" x2="724.29" y2="429.19" gradientTransform="translate(910.6 -107.17) rotate(-165.39) scale(1 -1)" gradientUnits="userSpaceOnUse"><stop offset=".32" stop-color="#00bdc2"/><stop offset=".47" stop-color="#49caba"/><stop offset=".68" stop-color="#aadbb1"/><stop offset=".82" stop-color="#e7e5ab"/><stop offset=".89" stop-color="#ffeaa9"/></linearGradient><linearGradient id="linear-gradient-4" x1="366.84" y1="431.91" x2="462.75" y2="431.91" xlink:href="#linear-gradient"/><linearGradient id="linear-gradient-5" x1="644.75" y1="477.59" x2="806.46" y2="404.34" gradientTransform="translate(910.6 -107.17) rotate(-165.39) scale(1 -1)" gradientUnits="userSpaceOnUse"><stop offset="0" stop-color="#00bdc2"/><stop offset=".15" stop-color="#49caba"/><stop offset=".37" stop-color="#aadbb1"/><stop offset=".52" stop-color="#e7e5ab"/><stop offset=".59" stop-color="#ffeaa9"/></linearGradient><linearGradient id="linear-gradient-6" x1="669.08" y1="522.43" x2="775.56" y2="380.38" xlink:href="#linear-gradient"/><linearGradient id="linear-gradient-7" x1="392.3" y1="-1617.04" x2="498.78" y2="-1759.09" gradientTransform="translate(-491.07 1784.59) rotate(-146) scale(1 -1)" xlink:href="#linear-gradient"/><linearGradient id="linear-gradient-8" x1="87.04" y1="109.34" x2="420.36" y2="109.34" gradientTransform="matrix(1, 0, 0, 1, 0, 0)" gradientUnits="userSpaceOnUse"><stop offset="0" stop-color="#ffeaa9"/><stop offset="1" stop-color="#00bdc2"/></linearGradient><linearGradient id="linear-gradient-9" x1="109" y1="97.42" x2="403.2" y2="97.42" xlink:href="#linear-gradient-8"/><linearGradient id="linear-gradient-10" x1="109" y1="97.42" x2="403.2" y2="97.42" xlink:href="#linear-gradient-8"/><linearGradient id="linear-gradient-11" x1="109" y1="97.42" x2="403.2" y2="97.42" xlink:href="#linear-gradient-8"/></defs><g id="Tracks"><g id="Turtle"><path id="Head" class="cls-13" d="M101.99,38.35s-17.75-7.93-33.86-24.87l-7.04-4.67L29.27,.51S.51,7.64,.19,23.37c-.32,15.72,29.27,24.38,29.27,24.38,0,0,35.77,5.79,45.95,29.21,10.17,23.42,46.07,25.09,46.07,25.09l-19.49-63.7Z"/><g id="Layer_45"><path class="cls-1" d="M61.08,8.81s-1.77-2.26-10.75-6.3C41.36-1.52,29.27,.51,29.27,.51l31.81,8.3Z"/></g><g id="Layer_44"><path class="cls-2" d="M90.66,65.05s-18.32-19.33-36.55-22.03C35.88,40.33,5.33,30.06,.44,21"/><path class="cls-2" d="M90.62,85.31s-15.65-30.34-33.89-33.04C38.5,49.57,6.73,38.98,1.83,29.91"/></g><path id="Bottom_Shell" class="cls-12" d="M165.37,156.34s-41.1-9.77-55.95-30.64c-14.85-20.86,6.86-10.01,6.86-10.01l49.1,40.64Z"/><path id="Back_leg_back" class="cls-4" d="M386.43,211.62l-10.64,1-15.47-4.03s-8.71-3.69-10.15-9.02c0,0-34.61-11.15-26.2-10.84,8.41,.31,38.19-25.2,38.19-25.2l31.53,20.25,.62,26.59-7.88,1.25Z"/><path id="Back_leg_front" class="cls-14" d="M390.53,166.15l33.61,29.21c.16,.14,.32,.29,.46,.45,1.67,1.79,11.43,12.65,8.41,18.76-.85,1.72-.95,3.71-.13,5.45,.7,1.49,1.82,3.47,3.6,6,1.46,2.07,1,5.22,.39,7.68-.46,1.87-1.08,4.16-1.82,6.42-.81,2.47-.63,4.8-.22,6.57,.36,1.57,1.15,2.99,2.19,4.22,.89,1.05,1.59,2.54-1.84,2.34-5.01-.29-65.55-29.69-75.94-77.19-.74-3.38,1.47-6.71,4.88-7.34l21.28-3.95c1.84-.34,3.73,.17,5.15,1.4Z"/><g id="Layer_42"><path class="cls-2" d="M433.01,214.56s-63.82-39.54-60.72-50.06"/><path class="cls-2" d="M435.96,239.02s-79.99-54.87-75.46-70.51"/></g><path id="Front_arm_back" class="cls-4" d="M206.89,189.82s-2.91,3.02-1.84,7.07-16.79-4.38-16.79-4.38c0,0-3.12,2.02-8.2,.69s-31.49-18.59-31.49-18.59c0,0-5.46-8.03-6.85-12.64,0,0-12.25-10.04-12.78-23.39s48.16,17.99,48.16,17.99l14.16,18.09,15.63,15.17Z"/><g><path class="cls-8" d="M99.87,177.37c2.28-6.37,3.05-10.39,3.27-12.76,.13-1.51-.19-3.04-.97-4.34-7.38-12.33,1.07-31.78,3.56-36.96,.43-.89,.67-1.86,.71-2.85l1.49-38.58,12.56,40.64c.29,.95,.38,1.94,.28,2.93-.64,5.72-2.14,26.87,8.91,36.05,1.17,.97,1.98,2.3,2.36,3.77,.59,2.32,1.2,6.36,1.16,13.12-.07,12.04,12.4,32.23,14.17,35.04,.17,.27,.32,.55,.46,.84,.92,2.03,3.71,9.37-4.06,9.58-5.59,.15-23.2-3.47-44.62-22.86-1-8-1.45-17.52,.73-23.62Z"/><path class="cls-3" d="M57.83,145.73c-.49-.92-.77-1.93-.83-2.97-.24-4.04-.55-15,2.11-25.93,1.74-7.12,1.27-11.15,.42-13.38-1.22-3.2-1.18-6.74-.04-9.96,2.99-8.4,10.64-22.97,29.95-38.3,3.95-3.14,9.83-1.3,11.32,3.52l7.16,23.15-1.49,38.58c-.04,.99-.28,1.96-.71,2.85-2.5,5.18-10.94,24.63-3.56,36.96,.78,1.3,1.11,2.83,.97,4.34-.21,2.38-.98,6.39-3.27,12.76-2.18,6.09-1.73,15.61-.73,23.62-12.98-11.74-27.36-29.27-41.3-55.26Z"/><path class="cls-10" d="M57.83,145.73c-.49-.92-.77-1.93-.83-2.97-.24-4.04-.55-15,2.11-25.93,1.74-7.12,1.27-11.15,.42-13.38-1.22-3.2-1.18-6.74-.04-9.96,2.99-8.4,10.64-22.97,29.95-38.3,3.95-3.14,9.83-1.3,11.32,3.52l7.16,23.15-1.49,38.58c-.04,.99-.28,1.96-.71,2.85-2.5,5.18-10.94,24.63-3.56,36.96,.78,1.3,1.11,2.83,.97,4.34-.21,2.38-.98,6.39-3.27,12.76-2.18,6.09-1.73,15.61-.73,23.62-12.98-11.74-27.36-29.27-41.3-55.26Z"/></g><g id="Layer_43"><path class="cls-2" d="M128.11,220.05s-31.76-73.7-16.1-102.53"/><path class="cls-2" d="M99.13,200.99s-12.34-82.53,10.32-106.26"/><path class="cls-2" d="M77.11,176.4s7.03-74.45,29.69-98.18"/></g><g id="Shell"><g><path class="cls-15" d="M101.59,25.63l15.16-2.02,2.97,.34-10.62,19.57,1.87,15.13-1.98,9.25,4.29,6.89s6.7,31.03,47.51,56.32l8.23,10.13,13.44,3.5,14.99,9.23s20.07,11.45,61.9,16.14c41.84,4.7,122.25-13.48,122.25-13.48,0,0,15.01-2.95,21.58-6.82l12.64,10,4.14,6.55c4.14,6.55-27.21,12.71-27.21,12.71,0,0-90.19,20.38-137.1,15.11-46.92-5.27-69.42-18.1-69.42-18.1l-16.81-10.36-15.07-3.93-9.23-11.36c-45.77-28.36-53.28-63.16-53.28-63.16l-4.81-7.72,2.22-10.37-2.1-16.97,14.43-26.59Z"/><path class="cls-15" d="M101.59,25.63l15.16-2.02,2.97,.34-10.62,19.57,1.87,15.13-1.98,9.25,4.29,6.89s6.7,31.03,47.51,56.32l8.23,10.13,13.44,3.5,14.99,9.23s20.07,11.45,61.9,16.14c41.84,4.7,122.25-13.48,122.25-13.48,0,0,15.01-2.95,21.58-6.82l12.64,10,4.14,6.55c4.14,6.55-27.21,12.71-27.21,12.71,0,0-90.19,20.38-137.1,15.11-46.92-5.27-69.42-18.1-69.42-18.1l-16.81-10.36-15.07-3.93-9.23-11.36c-45.77-28.36-53.28-63.16-53.28-63.16l-4.81-7.72,2.22-10.37-2.1-16.97,14.43-26.59Z"/><path class="cls-11" d="M259.36,170.12c-41.84-4.7-61.9-16.14-61.9-16.14l-14.99-9.23-13.44-3.5-8.23-10.13c-40.82-25.29-47.51-56.32-47.51-56.32l-4.29-6.89,1.98-9.25-1.87-15.13,10.62-19.57,17.39,1.99,32.46,6.47,27.4,7.15,41.62,14.34,27.92,10.76,28.47,12.4,16.93,9.89,26.31,18.81,11.02,6.36,43.12,29.16,10.81,8.55c-6.57,3.87-21.58,6.82-21.58,6.82,0,0-80.42,18.17-122.25,13.48Z"/><path class="cls-6" d="M259.36,170.12c-41.84-4.7-61.9-16.14-61.9-16.14l-14.99-9.23-13.44-3.5-8.23-10.13c-40.82-25.29-47.51-56.32-47.51-56.32l-4.29-6.89,1.98-9.25-1.87-15.13,10.62-19.57,17.39,1.99,32.46,6.47,27.4,7.15,41.62,14.34,27.92,10.76,28.47,12.4,16.93,9.89,26.31,18.81,11.02,6.36,43.12,29.16,10.81,8.55c-6.57,3.87-21.58,6.82-21.58,6.82,0,0-80.42,18.17-122.25,13.48Z"/><path class="cls-5" d="M259.36,170.12c-41.84-4.7-61.9-16.14-61.9-16.14l-14.99-9.23-13.44-3.5-8.23-10.13c-40.82-25.29-47.51-56.32-47.51-56.32l-4.29-6.89,1.98-9.25-1.87-15.13,10.62-19.57,17.39,1.99,32.46,6.47,27.4,7.15,41.62,14.34,27.92,10.76,28.47,12.4,16.93,9.89,26.31,18.81,11.02,6.36,43.12,29.16,10.81,8.55c-6.57,3.87-21.58,6.82-21.58,6.82,0,0-80.42,18.17-122.25,13.48Z"/></g></g><g id="Layer_46"><g><path class="cls-7" d="M348.59,109.17l49.53,32.96s-6.58,12.33-16.02,12.16l-37.47-42.78,3.96-2.33Z"/><path class="cls-7" d="M318,113.78c-.46-.31-9.43-1.51-9.43-1.51l-17.36-24.16,12.2-9.79,35.82,23.83c-.23,.89-20.76,11.94-21.23,11.63Z"/><path class="cls-7" d="M339.3,113.04l27.13,36.25-3.27,4.87s-18.05,7.11-35.4,9.45l-9.48-3.43s0-30.7,.11-33.91c.11-3.21,20.92-13.23,20.92-13.23Z"/><path class="cls-7" d="M280.87,98.43l8.57-3.54,19.34,24.92,2.66,47.72s-31.63,13.13-60.83-8.17c0,0-1.97-18.26,8.86-42.37l21.4-18.57Z"/><polygon class="cls-7" points="239.37 51.71 278.9 64.12 294.75 74.54 286.8 84.1 257.96 105.37 227.55 70.56 239.37 51.71"/><polygon class="cls-7" points="219.52 75.52 250.03 115.19 244.42 156.58 236.97 160.72 177.5 143.84 170.72 130.07 187.45 92.44 219.52 75.52"/><polygon class="cls-7" points="180.06 78.77 152.01 44.57 156.39 27.79 206.1 39.03 226.94 46.95 229.63 52.8 214.95 66.7 180.06 78.77"/><path class="cls-7" d="M115.76,22.34l31.8,5.05-2.93,11.25-25.74,20.55s-8.84-5.17-7.13-21.5c1.71-16.33,4-15.35,4-15.35Z"/><path class="cls-7" d="M177.95,91.86l-10.11,29.16-10.58,2.21s-30.51-14.91-44.62-56.75l32.02-18.88,33.28,44.25Z"/></g></g><path class="cls-9" d="M45.87,27.98c-.06,.68-6.34,1.31-11.44-1.52-3.79-2.11-6-5.62-5.48-6.04,.45-.37,2.77,1.76,7.98,4.16,5.62,2.59,8.99,2.9,8.95,3.4Z"/></g></g></svg>